<svg width="46" height="38" viewBox="0 0 46 38" fill="none"
    xmlns="http://www.w3.org/2000/svg">
    <path fill-rule="evenodd" clip-rule="evenodd" d="M31.9995 17.9996H31.9975C30.9375 17.9996 29.9205 18.4206 29.1705 19.1706C28.4205 19.9206 27.9995 20.9376 27.9995 21.9976V22.0016C27.9995 23.0616 28.4205 24.0786 29.1705 24.8286C29.9205 25.5786 30.9375 25.9996 31.9975 25.9996H34.0015C34.5315 25.9996 35.0395 26.2096 35.4145 26.5846C35.7885 26.9596 35.9995 27.4676 35.9995 27.9976V28.0016C35.9995 28.5316 35.7885 29.0396 35.4145 29.4146C35.0395 29.7886 34.5315 29.9996 34.0015 29.9996H31.9975C31.4675 29.9996 30.9595 29.7896 30.5845 29.4146C30.2105 29.0396 29.9995 28.5316 29.9995 28.0016C29.9995 27.4496 29.5515 27.0016 28.9995 27.0016C28.4475 27.0016 27.9995 27.4496 27.9995 28.0016C27.9995 29.0616 28.4205 30.0786 29.1705 30.8286C29.9205 31.5786 30.9375 31.9996 31.9975 31.9996H31.9995V32.9996C31.9995 33.5516 32.4475 33.9996 32.9995 33.9996C33.5515 33.9996 33.9995 33.5516 33.9995 32.9996V31.9996H34.0015C35.0615 31.9996 36.0785 31.5786 36.8285 30.8286C37.5785 30.0786 37.9995 29.0616 37.9995 28.0016V27.9976C37.9995 26.9376 37.5785 25.9206 36.8285 25.1706C36.0785 24.4206 35.0615 23.9996 34.0015 23.9996H31.9975C31.4675 23.9996 30.9595 23.7896 30.5845 23.4146C30.2105 23.0396 29.9995 22.5316 29.9995 22.0016V21.9976C29.9995 21.4676 30.2105 20.9596 30.5845 20.5846C30.9595 20.2106 31.4675 19.9996 31.9975 19.9996H34.0015C34.5315 19.9996 35.0395 20.2096 35.4145 20.5846C35.7885 20.9596 35.9995 21.4676 35.9995 21.9976C35.9995 22.5496 36.4475 22.9976 36.9995 22.9976C37.5515 22.9976 37.9995 22.5496 37.9995 21.9976C37.9995 20.9376 37.5785 19.9206 36.8285 19.1706C36.0785 18.4206 35.0615 17.9996 34.0015 17.9996H33.9995V16.9996C33.9995 16.4476 33.5515 15.9996 32.9995 15.9996C32.4475 15.9996 31.9995 16.4476 31.9995 16.9996V17.9996Z" fill="white"/>
    <path fill-rule="evenodd" clip-rule="evenodd" d="M24.229 34.592C26.542 36.708 29.621 38 33 38C40.175 38 46 32.175 46 25C46 17.825 40.175 12 33 12C30.423 12 28.021 12.751 26 14.046V7C26 5.384 25.023 3.843 23.247 2.631C20.934 1.054 17.208 0 13 0C8.792 0 5.06601 1.054 2.75301 2.631C0.977006 3.843 0 5.384 0 7V31C0 32.616 0.977006 34.157 2.75301 35.369C5.06601 36.946 8.792 38 13 38C17.208 38 20.934 36.946 23.247 35.369C23.608 35.123 23.936 34.863 24.229 34.592ZM33 14C39.071 14 44 18.929 44 25C44 31.071 39.071 36 33 36C26.929 36 22 31.071 22 25C22 18.929 26.929 14 33 14ZM21.205 30.47C18.992 31.417 16.129 32 13 32C8.792 32 5.06601 30.946 2.75301 29.369C2.48301 29.185 2.232 28.993 2 28.795V31C2 32.034 2.743 32.941 3.88 33.716C5.936 35.118 9.26 36 13 36C16.74 36 20.064 35.118 22.12 33.716C22.392 33.531 22.642 33.338 22.864 33.137C22.209 32.323 21.65 31.428 21.205 30.47ZM20 24.927C17.994 25.601 15.588 26 13 26C8.792 26 5.06601 24.946 2.75301 23.369C2.48301 23.185 2.232 22.993 2 22.795V25C2 26.034 2.743 26.941 3.88 27.716C5.936 29.118 9.26 30 13 30C15.877 30 18.508 29.478 20.505 28.599C20.176 27.456 20 26.248 20 25V24.927ZM21.975 18.112C19.677 19.269 16.506 20 13 20C8.792 20 5.06601 18.946 2.75301 17.369C2.48301 17.185 2.232 16.993 2 16.795V19C2 20.034 2.743 20.941 3.88 21.716C5.936 23.118 9.26 24 13 24C15.732 24 18.242 23.529 20.198 22.729C20.493 21.059 21.107 19.498 21.975 18.112ZM2 10.795V13C2 14.034 2.743 14.941 3.88 15.716C5.936 17.118 9.26 18 13 18C16.74 18 20.064 17.118 22.12 15.716C23.257 14.941 24 14.034 24 13V10.795C23.768 10.993 23.517 11.185 23.247 11.369C20.934 12.946 17.208 14 13 14C8.792 14 5.06601 12.946 2.75301 11.369C2.48301 11.185 2.232 10.993 2 10.795ZM13 2C16.74 2 20.064 2.882 22.12 4.284C23.257 5.059 24 5.966 24 7C24 8.034 23.257 8.94101 22.12 9.71601C20.064 11.118 16.74 12 13 12C9.26 12 5.936 11.118 3.88 9.71601C2.743 8.94101 2 8.034 2 7C2 5.966 2.743 5.059 3.88 4.284C5.936 2.882 9.26 2 13 2Z" fill="white"/>
</svg>
    