<svg width="18" height="26" viewBox="0 0 18 26" fill="none"
    xmlns="http://www.w3.org/2000/svg">
    <path d="M9.5401 16.9182C9.5401 17.1842 9.39635 17.4138 9.1801 17.5363V18.614C9.1801 18.815 9.01466 18.966 8.8201 18.9734C8.62554 18.9808 8.4601 18.8008 8.4601 18.614V17.5363C8.24447 17.4144 8.1001 17.1842 8.1001 16.9182C8.1001 16.5229 8.42416 16.2 8.81948 16.2C9.21666 16.2 9.5401 16.5229 9.5401 16.9182Z" fill="white"/>
    <path d="M15.3 10.2667V6.53333C15.3 2.89333 12.51 0 9 0C5.49 0 2.7 2.89333 2.7 6.53333V10.2667C1.17 10.2667 0 11.48 0 13.0667V22.4C0 23.9867 1.17 25.2 2.7 25.2H15.3C16.83 25.2 18 23.9867 18 22.4V13.0667C18 11.48 16.83 10.2667 15.3 10.2667ZM4.5 6.53333C4.5 3.92 6.48 1.86667 9 1.86667C11.52 1.86667 13.5 3.92 13.5 6.53333V10.2667H4.5V6.53333ZM16.2 22.4C16.2 22.96 15.84 23.3333 15.3 23.3333H2.7C2.16 23.3333 1.8 22.96 1.8 22.4V13.0667C1.8 12.5067 2.16 12.1333 2.7 12.1333H15.3C15.84 12.1333 16.2 12.5067 16.2 13.0667V22.4Z" fill="white"/>
</svg>
    