<svg width="25" height="25" viewBox="0 0 25 25" fill="none"
    xmlns="http://www.w3.org/2000/svg">
    <path d="M12.5 0C5.60766 0 0 5.60766 0 12.5C0 19.3923 5.60766 25 12.5 25C19.3923 25 25 19.3923 25 12.5C25 5.60766 19.3923 0 12.5 0ZM0.806452 12.5C0.806452 6.05202 6.05202 0.806452 12.5 0.806452C18.948 0.806452 24.1935 6.05202 24.1935 12.5C24.1935 15.4798 23.0718 18.2012 21.2302 20.2685C19.7484 18.0629 17.5302 16.5569 14.9988 15.9855C17.0891 15.0319 18.5484 12.9274 18.5484 10.4839C18.5484 7.14879 15.8351 4.43548 12.5 4.43548C9.16492 4.43548 6.45161 7.14879 6.45161 10.4839C6.45161 12.9839 7.97661 15.1347 10.1448 16.0548C7.63306 16.7044 5.41976 18.2931 4.00766 20.5262C2.02581 18.4302 0.806452 15.6056 0.806452 12.5ZM12.5 15.7258C9.60968 15.7258 7.25806 13.3742 7.25806 10.4839C7.25806 7.59355 9.60968 5.24194 12.5 5.24194C15.3903 5.24194 17.7419 7.59355 17.7419 10.4839C17.7419 13.3742 15.3903 15.7258 12.5 15.7258ZM4.59476 21.1073C6.30645 18.2827 9.39556 16.5323 12.7016 16.5323C15.9528 16.5323 18.9012 18.1488 20.6573 20.8669C18.5488 22.9234 15.6706 24.1935 12.5 24.1935C9.45444 24.1935 6.67782 23.0222 4.59476 21.1073Z" fill="white"/>
</svg>
    